<svg width="169" height="40" viewBox="0 0 169 40" fill="none" xmlns="http://www.w3.org/2000/svg">
<g clip-path="url(#clip0_689_253)">
<path d="M9.08646 19.4311C9.28757 19.4311 9.57617 19.4755 10.4067 20.015C10.945 20.3649 11.4557 20.7566 11.9344 21.1864L11.909 26.1059C13.3386 26.0844 14.4726 26.093 15.2636 26.1059C16.0546 26.1188 16.8534 26.0701 17.6487 26.0608C18.1445 26.0625 18.639 26.0076 19.1227 25.8969C19.3828 25.8362 19.639 25.7593 19.8898 25.6665C19.8898 26.078 19.9441 27.6078 21.095 28.9052C21.653 29.5289 22.3635 29.9923 23.1547 30.2483C22.1573 30.6804 21.1161 31.0005 20.0499 31.2028C19.0994 31.3799 18.1345 31.4652 17.1681 31.4576C15.0075 31.4705 12.4404 31.4876 9.48585 31.4869C8.80562 31.4869 8.32014 31.3438 7.94897 31.1406C7.61486 30.9552 7.31805 30.7079 7.07398 30.4114C6.64125 29.8933 6.35153 29.2681 6.23428 28.5996L6.23004 21.1191C6.72099 20.6973 7.2433 20.3145 7.79232 19.9742C8.60874 19.4697 8.891 19.4304 9.08646 19.4311Z" fill="#651FFF"/>
<path d="M9.08646 12.2104C8.43184 12.2142 7.79799 12.4438 7.2892 12.8616L0.206726 18.0472L2.21638 20.8759C2.44387 21.1813 2.78029 21.3843 3.15355 21.4412C3.52682 21.4982 3.90724 21.4047 4.21333 21.1807L8.27286 18.2261C8.52881 18.0441 8.83608 17.9511 9.14855 17.9612C9.46103 17.9713 9.76186 18.0838 10.0059 18.2819C10.4999 18.6326 11.9979 19.7131 14.028 21.2286C14.3259 21.421 14.6835 21.4947 15.0318 21.4355C15.3801 21.3763 15.6945 21.1884 15.9142 20.9081L17.9605 18.0458L10.7588 12.7635C10.2722 12.4062 9.68726 12.2127 9.08646 12.2104Z" fill="#00E5FF"/>
<path d="M6.20959 4.3764C6.28016 3.85619 6.50596 2.84653 7.31744 2.12453C7.91221 1.60449 8.67021 1.3163 9.45552 1.31165L17.281 1.3324C20.9673 1.29662 23.3396 2.57104 24.3946 3.24581C31.3303 7.68231 30.583 17.6723 30.5265 18.297C30.3085 20.7299 29.4843 22.8544 29.3975 23.0669C29.0144 24.0365 28.3624 25.648 26.9236 27.3181C26.3344 28.0021 25.6773 28.6226 24.9626 29.17C24.1308 28.9755 23.3678 28.5529 22.7568 27.9485C21.541 26.732 21.409 25.2201 21.3864 24.8265C21.8052 24.5146 22.1827 24.1496 22.5098 23.7403C22.7247 23.4641 22.9191 23.172 23.0912 22.8666C25.7691 18.0351 24.0368 12.3728 24.0368 12.3728C23.5676 10.8387 23.0842 9.30163 21.6376 8.13097C20.1558 6.92882 18.487 6.74206 17.715 6.70771L11.9076 6.67265L6.20959 6.75565V4.3764Z" fill="#651FFF"/>
<path d="M51.6929 18.9338C51.8119 19.5034 51.909 20.1068 51.9843 20.7442L37.0086 23.9714C37.4508 25.2436 38.2505 26.1562 39.4077 26.7091C40.565 27.262 41.8723 27.3813 43.3297 27.0669C44.3361 26.8578 45.2817 26.4172 46.0936 25.7789C46.899 25.1449 47.44 24.3671 47.7166 23.4454C48.4048 23.6534 49.858 24.0828 52.076 24.7334C51.5745 26.5362 50.5798 28.0138 49.0919 29.1664C47.6039 30.3189 45.8786 31.106 43.916 31.5277C41.0554 32.1441 38.4394 31.6909 36.0679 30.1681C33.6965 28.6454 32.1879 26.3485 31.542 23.2773C30.898 20.2061 31.3578 17.5062 32.9215 15.1778C34.4852 12.8494 36.6974 11.3767 39.558 10.7599C42.4177 10.1431 44.994 10.5834 47.2869 12.0808C49.5797 13.5783 51.0484 15.8626 51.6929 18.9338ZM36.2246 20.4365L46.3201 18.2605C45.8441 16.9667 45.0796 16.0467 44.0268 15.5005C42.974 14.9543 41.8029 14.8203 40.5135 15.0984C39.1389 15.3946 38.0609 16.0207 37.2795 16.9767C36.4981 17.9327 36.1465 19.0872 36.2246 20.4401V20.4365Z" fill="#651FFF"/>
<path d="M66.8238 10.9302H72.1457V23.0948C72.1457 28.5331 68.0488 31.9607 62.5159 31.9607C56.983 31.9607 52.886 28.5345 52.886 23.0948V10.9302H58.208V22.6225C58.208 25.3632 59.8126 27.1621 62.5123 27.1621C65.2121 27.1621 66.8238 25.3632 66.8238 22.6225V10.9302Z" fill="#651FFF"/>
<path d="M73.1414 10.9302H78.4626V12.9002C80.1528 11.1871 82.3913 10.3306 85.1781 10.3306C91.049 10.3306 94.935 15.0848 94.935 21.2071C94.935 27.3295 91.049 32 85.1781 32C82.6442 32 80.1102 31.2286 78.4626 29.6873V39.9284L75.7812 39.9671C75.1292 39.9428 74.5057 39.6899 74.0171 39.2515C73.1647 38.4751 73.1068 37.439 73.0997 37.2479L73.1414 10.9302ZM84.0787 15.2987C80.6578 15.2987 78.6729 17.7395 78.6729 21.2093C78.6729 24.5925 80.7002 27.034 84.0787 27.034C87.4573 27.034 89.4416 24.5925 89.4416 21.2093C89.4444 17.7395 87.4587 15.2987 84.0802 15.2987H84.0787Z" fill="#651FFF"/>
<path d="M96.7364 0.894482C97.2197 0.424234 97.8506 0.141087 98.5189 0.0944824H101.227V31.3596H95.9059C95.9002 21.825 95.8948 12.2901 95.8896 2.75495C95.9398 2.05112 96.2408 1.38984 96.7364 0.894482Z" fill="#651FFF"/>
<path d="M113.095 10.2877C119.642 10.2877 124.076 15.0419 124.076 21.0805C124.076 27.205 119.642 31.9571 113.095 31.9571C106.507 31.9571 102.158 27.2029 102.158 21.0805C102.156 15.0419 106.507 10.2877 113.095 10.2877ZM113.095 15.2558C109.674 15.2558 107.562 17.6973 107.562 21.0805C107.562 24.5066 109.674 26.9911 113.095 26.9911C116.601 26.9911 118.713 24.5496 118.713 21.0805C118.713 17.6973 116.601 15.2558 113.095 15.2558Z" fill="#651FFF"/>
<path d="M133.537 10.2877C136.282 10.2877 138.52 11.1442 140.252 12.8572V10.9302H145.573V31.3596H140.252V29.3896C138.563 31.1027 136.324 31.9592 133.537 31.9592C127.751 31.9592 123.781 27.1191 123.781 21.0827C123.781 15.0462 127.751 10.2877 133.537 10.2877ZM134.635 15.2558C131.299 15.2558 129.273 17.6973 129.273 21.0805C129.273 24.5066 131.258 26.9911 134.635 26.9911C138.013 26.9911 140.041 24.5496 140.041 21.0805C140.041 17.6973 138.013 15.2558 134.635 15.2558Z" fill="#651FFF"/>
<path d="M156.298 10.2877C158.833 10.2877 161.367 11.0583 163.014 12.6004V0.0944824H168.336L168.356 28.7299C168.369 28.9066 168.432 30.1167 167.51 31.0197C167.029 31.4811 166.406 31.7593 165.746 31.8068L162.994 31.7353V29.3739C162.154 30.2101 161.16 30.8703 160.068 31.3167C158.422 31.9879 157.026 31.9607 156.298 31.9607C150.428 31.9607 146.542 27.2065 146.542 21.0841C146.542 14.9617 150.43 10.2877 156.298 10.2877ZM157.397 15.2558C154.018 15.2558 152.034 17.6973 152.034 21.0805C152.034 24.5496 154.019 26.9911 157.397 26.9911C160.818 26.9911 162.803 24.5496 162.803 21.0805C162.805 17.6973 160.778 15.2558 157.399 15.2558H157.397Z" fill="#651FFF"/>
</g>
<defs>
<clipPath id="clip0_689_253">
<rect width="169" height="40" fill="white"/>
</clipPath>
</defs>
</svg>
